<svg xmlns="http://www.w3.org/2000/svg" xmlns:xlink="http://www.w3.org/1999/xlink" id="Layer_1" width="24" height="24" x="0" y="0" baseProfile="tiny" version="1.1" viewBox="0 0 24 24" xml:space="preserve"><g><g><path d="M5.5,23.5C5.224,23.5,5,23.276,5,23V1c0-0.276,0.224-0.5,0.5-0.5S6,0.724,6,1v22C6,23.276,5.776,23.5,5.5,23.5z"/></g><g><path d="M5.5,14.5c-0.096,0-0.191-0.027-0.274-0.082C5.085,14.325,5,14.168,5,14V1c0-0.168,0.085-0.325,0.226-0.418 s0.319-0.106,0.473-0.041l15,6.5C20.882,7.12,21,7.301,21,7.5s-0.118,0.38-0.301,0.459l-15,6.5C5.635,14.486,5.567,14.5,5.5,14.5z M6,1.762v11.477L19.242,7.5L6,1.762z"/></g></g></svg>